<?xml version="1.0" encoding="UTF-8" standalone="no"?>
<svg width="102px" height="114px" viewBox="0 0 102 114" version="1.1" xmlns="http://www.w3.org/2000/svg" xmlns:xlink="http://www.w3.org/1999/xlink">
    <!-- Generator: Sketch 39.1 (31720) - http://www.bohemiancoding.com/sketch -->
    <title>logoWithName</title>
    <desc>Created with Sketch.</desc>
    <defs></defs>
    <g id="Page-1" stroke="none" stroke-width="1" fill="none" fill-rule="evenodd">
        <g id="logoWithName">
            <g id="Page-1">
                <g id="Logo-Cromie-D-01">
                    <g id="Group-3">
                        <polygon id="Shape" fill="#FFFFFF" points="53.9181563 95.0268 58.962375 88.4496 58.962375 86.3576 50.062875 86.3576 50.062875 89.0188 55.0748203 89.0188 55.0748203 89.082 50.0174531 95.6516 50.0174531 97.7532 59.1508359 97.7532 59.1508359 95.0904 53.9181563 95.0904"></polygon>
                        <polygon id="Shape" fill="#FFFFFF" points="63.7890469 97.7532 71.7972422 97.7532 71.7972422 95.0904 67.1239688 95.0904 67.1239688 93.2596 71.5067813 93.2596 71.5067813 90.856 67.1239688 90.856 67.1239688 89.0188 71.7972422 89.0188 71.7972422 86.3576 63.7890469 86.3576"></polygon>
                        <path d="M86.2071328,90.226 C86.2071328,87.784 84.6468516,86.3572 81.6211172,86.3572 L76.5768984,86.3572 L76.5768984,97.7528 L79.9130156,97.7528 L79.9130156,93.9276 L81.0067266,93.9276 L82.8012891,97.7528 L86.5290703,97.7528 L84.373125,93.4344 C85.5624609,92.8624 86.2071328,91.5688 86.2071328,90.226 L86.2071328,90.226 L86.2071328,90.226 Z M81.2896172,91.7184 L79.9130156,91.7184 L79.9130156,88.8268 L81.2991797,88.8268 C82.1936719,88.8268 82.8016875,89.4368 82.8016875,90.2812 C82.8012891,91.1424 82.2263438,91.7184 81.2896172,91.7184 L81.2896172,91.7184 L81.2896172,91.7184 Z" id="Shape" fill="#FFFFFF"></path>
                        <path d="M96.217875,86.16 C92.7100313,86.16 90.4983047,88.418 90.4983047,92.0576 C90.4983047,95.7 92.6996719,97.9488 96.217875,97.9488 C99.7261172,97.9488 101.937047,95.7004 101.937047,92.0576 C101.937047,88.418 99.7261172,86.16 96.217875,86.16 L96.217875,86.16 L96.217875,86.16 Z M96.217875,95.2792 C94.8177656,95.2792 93.8957812,94.0248 93.8957812,92.0576 C93.8957812,90.0836 94.8245391,88.8268 96.217875,88.8268 C97.6116094,88.8268 98.5375781,90.084 98.5375781,92.0576 C98.5379766,94.0248 97.6171875,95.2792 96.217875,95.2792 L96.217875,95.2792 L96.217875,95.2792 Z" id="Shape" fill="#FFFFFF"></path>
                        <path d="M5.8809375,86.16 C2.37309375,86.16 0.162164063,88.418 0.162164063,92.0576 C0.162164063,95.7 2.365125,97.9488 5.8809375,97.9488 C9.38878125,97.9488 11.6009063,95.7004 11.6009063,92.0576 C11.6009063,88.418 9.38878125,86.16 5.8809375,86.16 L5.8809375,86.16 L5.8809375,86.16 Z M5.8809375,95.2792 C4.48082813,95.2792 3.55964063,94.0248 3.55964063,92.0576 C3.55964063,90.0836 4.48720313,88.8268 5.8809375,88.8268 C7.27347656,88.8268 8.20342969,90.084 8.20342969,92.0576 C8.20342969,94.0248 7.28104688,95.2792 5.8809375,95.2792 L5.8809375,95.2792 L5.8809375,95.2792 Z" id="Shape" fill="#575756"></path>
                        <polygon id="Shape" fill="#575756" points="23.1551953 92.2628 23.0898516 92.2628 18.7110234 86.3576 16.1211797 86.3576 16.1211797 97.7532 19.2676406 97.7532 19.2676406 91.75 19.3305937 91.75 23.7432891 97.7532 26.3012578 97.7532 26.3012578 86.3576 23.1551953 86.3576"></polygon>
                        <polygon id="Shape" fill="#575756" points="39.1038516 95.0904 34.4317734 95.0904 34.4317734 93.2596 38.8129922 93.2596 38.8129922 90.856 34.4317734 90.856 34.4317734 89.0188 39.1038516 89.0188 39.1038516 86.3576 31.0952578 86.3576 31.0952578 97.7532 39.1038516 97.7532"></polygon>
                        <path d="M19.8987656,107.902 L19.8987656,107.8376 C21.2152031,107.672 22.2053203,106.6856 22.2053203,105.3736 C22.2053203,103.5972 20.8430625,102.532 18.5245547,102.532 L12.9448359,102.532 L12.9448359,113.9288 L18.7134141,113.9288 C21.1418906,113.9288 22.7161172,112.6084 22.7161172,110.6096 C22.7165156,109.1028 21.43275,107.9404 19.8987656,107.902 L19.8987656,107.902 L19.8987656,107.902 Z M16.2809531,104.8288 L17.6181094,104.8288 C18.4604062,104.8288 18.9632344,105.2548 18.9632344,105.9584 C18.9632344,106.6448 18.4289297,107.0972 17.5706953,107.0972 L16.2805547,107.0972 L16.2805547,104.8288 L16.2809531,104.8288 L16.2809531,104.8288 Z M17.7049687,111.6284 L16.2809531,111.6284 L16.2809531,109.0144 L17.7284766,109.0144 C18.7277578,109.0144 19.3266094,109.4892 19.3266094,110.302 C19.3266094,111.1616 18.7357266,111.6284 17.7049687,111.6284 L17.7049687,111.6284 L17.7049687,111.6284 Z" id="Shape" fill="#575756"></path>
                        <rect id="Rectangle-path" fill="#575756" x="27.0403594" y="102.5316" width="3.33492187" height="11.3968"></rect>
                        <polygon id="Shape" fill="#575756" points="42.2028984 108.44 42.1415391 108.44 37.7587266 102.5316 35.1716719 102.5316 35.1716719 113.9284 38.3193281 113.9284 38.3193281 107.9244 38.3806875 107.9244 42.7949766 113.9284 45.3505547 113.9284 45.3505547 102.5316 42.2028984 102.5316"></polygon>
                        <path d="M53.2997812,102.5316 L49.5955078,113.9284 L52.9929844,113.9284 L53.5834688,111.6612 L57.0442969,111.6612 L57.6335859,113.9284 L61.1900391,113.9284 L57.4857656,102.5316 L53.2997812,102.5316 L53.2997812,102.5316 L53.2997812,102.5316 Z M54.1906875,109.2996 L55.2828047,105.1628 L55.3457578,105.1628 L56.4394687,109.2996 L54.1906875,109.2996 L54.1906875,109.2996 L54.1906875,109.2996 Z" id="Shape" fill="#575756"></path>
                        <path d="M75.0652266,106.3988 C75.0652266,103.9608 73.5081328,102.5316 70.4780156,102.5316 L65.4365859,102.5316 L65.4365859,113.9284 L68.7715078,113.9284 L68.7715078,110.1044 L69.8652187,110.1044 L71.6585859,113.9284 L75.3859688,113.9284 L73.2300234,109.6072 C74.4197578,109.0396 75.0652266,107.7428 75.0652266,106.3988 L75.0652266,106.3988 L75.0652266,106.3988 Z M70.1485078,107.8924 L68.7719063,107.8924 L68.7719063,105.002 L70.1564766,105.002 C71.0537578,105.002 71.6589844,105.6108 71.6589844,106.4552 C71.6589844,107.3168 71.0836406,107.8924 70.1485078,107.8924 L70.1485078,107.8924 L70.1485078,107.8924 Z" id="Shape" fill="#575756"></path>
                        <polygon id="Shape" fill="#575756" points="86.2162969 102.5316 84.2268984 107.1512 84.1635469 107.1512 82.1725547 102.5316 78.610125 102.5316 82.4869219 110.3188 82.4869219 113.9284 85.8230391 113.9284 85.8230391 110.3188 89.7006328 102.5316"></polygon>
                        <g id="Group-2">
                            <path d="M62.4216094,15.1932 C56.2183359,15.1932 51.6964688,22.318 51.6964688,38.0488 C51.6964688,53.722 56.2183359,61.216 62.4216094,61.216 C68.6248828,61.216 73.0941563,53.722 73.0941563,38.0488 C73.0941563,22.318 68.6248828,15.1932 62.4216094,15.1932 L62.4216094,15.1932 L62.4216094,15.1932 Z" id="Shape" fill="#FFFFFF"></path>
                            <path d="M90.5883516,0.1212 L83.8192969,0.1212 C90.5453203,9.5732 95.7441328,22.8072 95.7441328,38.6052 C95.7441328,54.4032 90.41025,67.908 83.7746719,76.6396 L90.58875,76.6396 C96.9231094,68.526 101.970914,54.8988 101.970914,38.6052 C101.970914,22.3116 97.9000781,10.5396 90.5883516,0.1212 L90.5883516,0.1212 L90.5883516,0.1212 Z" id="Shape" fill="#FFFFFF"></path>
                            <path d="M19.1783906,19.3092 L19.1783906,76.312 L41.3319141,76.312 C35.5529766,75.5364 32.6790469,72.0348 32.6790469,65.7148 L32.6790469,47.78 C32.6790469,41.1052 30.3250781,37.8808 25.0804453,37.3812 L25.0804453,36.3816 C30.3708984,35.882 32.6790469,32.6128 32.6790469,25.9828 L32.6790469,10.7684 C32.6790469,4.3236 35.2959844,0.944 41.0737266,0.1536 L19.1783906,0.1536 L0.146226563,12.9248 L0.146226563,31.6608 L18.7576406,19.3092 L19.1783906,19.3092 L19.1783906,19.3092 L19.1783906,19.3092 Z" id="Shape" fill="#575756"></path>
                        </g>
                    </g>
                </g>
            </g>
        </g>
    </g>
</svg>